#!OML:ASF G:\JayActor3\Patient Classification 1\Patient 1\Session 2\male.ASF
:FULLY-SPECIFIED
:DEGREES
3527
root -31.5019 16.8072 -6.46013 -363.37 -76.5624 4.19689
lowerback 6.68434 0.613496 2.13406
upperback 2.63898 0.913963 2.26091
thorax -1.02922 0.427351 1.06014
lowerneck -14.1726 -0.0408611 0.241252
upperneck 29.4895 -0.264119 -1.48696
head 12.0285 -0.487237 -0.681217
rclavicle -2.98177e-014 -2.38542e-015
rhumerus -47.114 15.4746 -87.6461
rradius 57.0239
rwrist -8.00637
rhand -29.2342 6.74584
rfingers 7.12502
rthumb -2.57792 -23.2183
lclavicle -2.98177e-014 -2.38542e-015
lhumerus -63.2086 -45.8322 98.2881
lradius 54.4649
lwrist 21.4924
lhand -17.4141 16.4689
lfingers 7.12502
lthumb 8.83572 46.2639
rfemur -23.1298 -7.91775 20.3414
rtibia 55.8539
rfoot -13.2668 -7.41927
rtoes 7.58317
lfemur -19.5342 19.7942 -28.5204
ltibia 30.0936
lfoot -18.5683 11.0211
ltoes -25.3933
3528
root -31.5941 16.8169 -6.44482 -362.211 -76.2371 2.83585
lowerback 6.4776 0.606537 2.15247
upperback 2.56093 0.903778 2.32847
thorax -0.99558 0.423008 1.1217
lowerneck -14.1664 0.0219788 0.271827
upperneck 29.4942 -0.182549 -1.47292
head 12.03 -0.445053 -0.669469
rclavicle -2.08724e-014 -1.90833e-014
rhumerus -47.2379 15.5104 -87.628
rradius 57.2013
rwrist -8.04036
rhand -29.2674 6.75263
rfingers 7.12502
rthumb -2.60995 -23.2111
lclavicle -2.08724e-014 -1.90833e-014
lhumerus -63.6352 -46.0534 98.3935
lradius 55.047
lwrist 21.6921
lhand -17.271 16.4736
lfingers 7.12502
lthumb 8.97388 46.2627
rfemur -22.7716 -8.44735 20.5401
rtibia 56.0651
rfoot -12.6473 -7.36696
rtoes 7.72114
lfemur -19.3904 20.0843 -28.5692
ltibia 29.6977
lfoot -17.8557 11.314
ltoes -24.6693
3529
root -31.6864 16.8253 -6.42904 -361.106 -75.912 1.52842
lowerback 6.26289 0.600386 2.16548
upperback 2.48311 0.893815 2.38906
thorax -0.957139 0.418828 1.17912
lowerneck -14.1924 0.067821 0.287623
upperneck 29.5054 -0.12563 -1.44331
head 12.0405 -0.413431 -0.65303
rclavicle -2.03754e-014 1.59028e-014
rhumerus -47.3735 15.5211 -87.6135
rradius 57.3661
rwrist -8.07994
rhand -29.307 6.74857
rfingers 7.12502
rthumb -2.64819 -23.2147
lclavicle -2.03754e-014 1.59028e-014
lhumerus -64.0517 -46.29 98.5096
lradius 55.633
lwrist 21.8901
lhand -17.1319 16.4643
lfingers 7.12502
lthumb 9.10806 46.2476
rfemur -22.3926 -8.93394 20.7289
rtibia 56.2492
rfoot -12.0374 -7.30672
rtoes 7.87214
lfemur -19.2191 20.3618 -28.5925
ltibia 29.3472
lfoot -17.0701 11.9177
ltoes -23.8299
3530
root -31.7786 16.8329 -6.41271 -360.032 -75.5916 0.253951
lowerback 6.04039 0.594728 2.17941
upperback 2.40383 0.884123 2.44255
thorax -0.915635 0.414854 1.22873
lowerneck -14.215 0.113778 0.297933
upperneck 29.5062 -0.0716792 -1.39738
head 12.0461 -0.381476 -0.629766
rclavicle 1.98785e-015 -1.19271e-014
rhumerus -47.5193 15.5132 -87.6078
rradius 57.5127
rwrist -8.12884
rhand -29.3516 6.7395
rfingers 7.12502
rthumb -2.69129 -23.2233
lclavicle 1.98785e-015 -1.19271e-014
lhumerus -64.455 -46.5414 98.6371
lradius 56.2082
lwrist 22.0743
lhand -16.9895 16.4427
lfingers 7.12502
lthumb 9.24546 46.22
rfemur -22.0018 -9.3698 20.9133
rtibia 56.4126
rfoot -11.4199 -7.24674
rtoes 7.91119
lfemur -19.0052 20.5717 -28.5675
ltibia 29.0534
lfoot -16.3499 12.8201
ltoes -22.4437
3531
root -31.8704 16.8394 -6.39579 -359.021 -75.2772 -0.959528
lowerback 5.82023 0.591775 2.19016
upperback 2.32293 0.877806 2.48647
thorax -0.876922 0.4126 1.26996
lowerneck -14.2189 0.161696 0.314536
upperneck 29.4927 -0.0175564 -1.34812
head 12.0422 -0.348171 -0.606074
rclavicle -2.21645e-014 -7.15625e-015
rhumerus -47.6748 15.4835 -87.6088
rradius 57.6388
rwrist -8.17721
rhand -29.4047 6.73273
rfingers 7.12502
rthumb -2.74257 -23.2294
lclavicle -2.21645e-014 -7.15625e-015
lhumerus -64.8374 -46.8126 98.7778
lradius 56.7627
lwrist 22.2455
lhand -16.8424 16.4195
lfingers 7.12502
lthumb 9.38741 46.1905
rfemur -21.6067 -9.76163 21.0868
rtibia 56.5718
rfoot -10.7935 -7.18594
rtoes 7.85245
lfemur -18.7523 20.725 -28.5034
ltibia 28.8196
lfoot -15.6347 14.0917
ltoes -20.8811
3532
root -31.9618 16.8454 -6.37822 -358.052 -74.9709 -2.13417
lowerback 5.61086 0.589471 2.2051
upperback 2.23247 0.873264 2.5194
thorax -0.853724 0.411261 1.29723
lowerneck -14.1996 0.21561 0.333466
upperneck 29.4773 0.0413693 -1.29052
head 12.0326 -0.311567 -0.578918
rclavicle -7.11649e-014 -2.46493e-014
rhumerus -47.8534 15.4372 -87.6285
rradius 57.7445
rwrist -8.22294
rhand -29.4619 6.73101
rfingers 7.12502
rthumb -2.7978 -23.2304
lclavicle -7.11649e-014 -2.46493e-014
lhumerus -65.2119 -47.0981 98.939
lradius 57.2832
lwrist 22.3888
lhand -16.6879 16.3849
lfingers 7.12502
lthumb 9.53648 46.1491
rfemur -21.219 -10.1091 21.2562
rtibia 56.741
rfoot -10.1515 -7.13353
rtoes 7.76896
lfemur -18.4424 20.7716 -28.3711
ltibia 28.6504
lfoot -15.1274 15.4782
ltoes -18.5882
3533
root -32.0525 16.8503 -6.35994 -357.125 -74.6744 -3.27018
lowerback 5.41742 0.590407 2.22806
upperback 2.13426 0.874223 2.53941
thorax -0.846988 0.412692 1.30616
lowerneck -14.1647 0.268443 0.371291
upperneck 29.4657 0.0941625 -1.23738
head 12.0213 -0.276404 -0.557646
rclavicle 4.57205e-015 1.82882e-014
rhumerus -48.0473 15.3822 -87.6687
rradius 57.8234
rwrist -8.267
rhand -29.5181 6.72589
rfingers 7.12502
rthumb -2.85207 -23.2348
lclavicle 4.57205e-015 1.82882e-014
lhumerus -65.561 -47.4006 99.1117
lradius 57.7594
lwrist 22.5041
lhand -16.5291 16.3499
lfingers 7.12502
lthumb 9.68971 46.107
rfemur -20.8553 -10.4265 21.4245
rtibia 56.9432
rfoot -9.46643 -7.11926
rtoes 7.55208
lfemur -18.0907 20.7444 -28.178
ltibia 28.5382
lfoot -14.7625 16.8498
ltoes -16.0899
3534
root -32.1423 16.8535 -6.34078 -356.25 -74.3859 -4.35635
lowerback 5.23609 0.591913 2.25667
upperback 2.03114 0.876721 2.54653
thorax -0.851697 0.414905 1.29845
lowerneck -14.1132 0.322569 0.428667
upperneck 29.4515 0.146906 -1.19682
head 12.0056 -0.240827 -0.544484
rclavicle 4.25399e-014 -9.54166e-015
rhumerus -48.248 15.3222 -87.7254
rradius 57.8763
rwrist -8.30026
rhand -29.5623 6.72659
rfingers 7.12502
rthumb -2.89478 -23.2335
lclavicle 4.25399e-014 -9.54166e-015
lhumerus -65.8678 -47.7084 99.2868
lradius 58.1756
lwrist 22.579
lhand -16.3819 16.2918
lfingers 7.12502
lthumb 9.8317 46.0422
rfemur -20.5345 -10.7266 21.5875
rtibia 57.201
rfoot -8.74952 -7.1424
rtoes 7.45398
lfemur -17.7068 20.6669 -27.9331
ltibia 28.4744
lfoot -14.5108 18.0541
ltoes -13.6867
3535
root -32.2312 16.8554 -6.32071 -355.425 -74.1083 -5.39587
lowerback 5.06686 0.594047 2.28888
upperback 1.9271 0.880518 2.54293
thorax -0.863803 0.417737 1.2775
lowerneck -14.0815 0.373212 0.4859
upperneck 29.4566 0.194808 -1.15804
head 12.0016 -0.207938 -0.532936
rclavicle -6.06293e-015 7.95139e-016
rhumerus -48.447 15.2698 -87.7966
rradius 57.902
rwrist -8.32468
rhand -29.5873 6.72963
rfingers 7.12502
rthumb -2.91893 -23.2301
lclavicle -6.06293e-015 7.95139e-016
lhumerus -66.1131 -48.0072 99.4498
lradius 58.5281
lwrist 22.6154
lhand -16.2485 16.2225
lfingers 7.12502
lthumb 9.96038 45.9669
rfemur -20.269 -11.0222 21.7461
rtibia 57.5351
rfoot -7.99482 -7.21709
rtoes 7.49122
lfemur -17.2749 20.5242 -27.6298
ltibia 28.4389
lfoot -14.5301 18.9029
ltoes -11.0253
3536
root -32.3188 16.8554 -6.29961 -354.685 -73.8398 -6.35458
lowerback 4.9024 0.594428 2.31197
upperback 1.831 0.881168 2.53028
thorax -0.870337 0.418976 1.25255
lowerneck -14.062 0.42271 0.542526
upperneck 29.4613 0.244535 -1.12901
head 12 -0.175486 -0.524701
rclavicle -1.13307e-014 2.38542e-015
rhumerus -48.6272 15.2345 -87.8732
rradius 57.9004
rwrist -8.33859
rhand -29.5844 6.73133
rfingers 7.12502
rthumb -2.91609 -23.2285
lclavicle -1.13307e-014 2.38542e-015
lhumerus -66.2741 -48.2867 99.5904
lradius 58.806
lwrist 22.6107
lhand -16.1429 16.1376
lfingers 7.12502
lthumb 10.0623 45.877
rfemur -20.073 -11.3273 21.8864
rtibia 57.9662
rfoot -7.19489 -7.35035
rtoes 7.71876
lfemur -16.7919 20.3202 -27.2848
ltibia 28.4133
lfoot -14.7765 19.383
ltoes -8.32897
3537
root -32.4051 16.8534 -6.27792 -354.082 -73.5805 -7.1868
lowerback 4.74785 0.590966 2.30471
upperback 1.74733 0.875045 2.50767
thorax -0.869873 0.416809 1.23473
lowerneck -14.0602 0.473157 0.600024
upperneck 29.4693 0.299213 -1.11169
head 12.0035 -0.142197 -0.52035
rclavicle 2.36057e-014 -1.98785e-014
rhumerus -48.7862 15.2206 -87.9531
rradius 57.8773
rwrist -8.34138
rhand -29.5553 6.74491
rfingers 7.12502
rthumb -2.88802 -23.2153
lclavicle 2.36057e-014 -1.98785e-014
lhumerus -66.3388 -48.5321 99.6945
lradius 59.0111
lwrist 22.576
lhand -16.063 16.0527
lfingers 7.12502
lthumb 10.1394 45.7884
rfemur -19.9509 -11.6427 21.9911
rtibia 58.5089
rfoot -6.35509 -7.55402
rtoes 8.32452
lfemur -16.2434 20.0531 -26.912
ltibia 28.3817
lfoot -15.1704 19.5541
ltoes -5.74113
3538
root -32.4904 16.8489 -6.25568 -353.625 -73.3283 -7.88294
lowerback 4.601 0.579124 2.26039
upperback 1.67929 0.855732 2.47766
thorax -0.858 0.408054 1.23075
lowerneck -14.073 0.529406 0.648331
upperneck 29.4709 0.366939 -1.09951
head 12.0077 -0.104573 -0.51441
rclavicle 4.57702e-014 1.19271e-014
rhumerus -48.9206 15.2379 -88.0338
rradius 57.8377
rwrist -8.33148
rhand -29.5003 6.75743
rfingers 7.12502
rthumb -2.8349 -23.2035
lclavicle 4.57702e-014 1.19271e-014
lhumerus -66.2962 -48.7299 99.7565
lradius 59.1377
lwrist 22.514
lhand -16.0113 15.9704
lfingers 7.12502
lthumb 10.1892 45.7037
rfemur -19.9086 -11.9713 22.0513
rtibia 59.1721
rfoot -5.46374 -7.83335
rtoes 9.20145
lfemur -15.6333 19.761 -26.5292
ltibia 28.3247
lfoot -15.5046 19.5535
ltoes -3.73322
3539
root -32.5742 16.8421 -6.23298 -353.325 -73.0809 -8.42729
lowerback 4.46057 0.561869 2.17804
upperback 1.62685 0.82729 2.43791
thorax -0.834023 0.394784 1.23851
lowerneck -14.0845 0.591283 0.685102
upperneck 29.4528 0.445616 -1.08343
head 12.0038 -0.0624672 -0.503233
rclavicle -3.11595e-014 -1.86858e-014
rhumerus -49.032 15.2774 -88.1091
rradius 57.7896
rwrist -8.31905
rhand -29.4327 6.77077
rfingers 7.12502
rthumb -2.76963 -23.191
lclavicle -3.11595e-014 -1.86858e-014
lhumerus -66.141 -48.8956 99.7797
lradius 59.1865
lwrist 22.4506
lhand -15.9899 15.9046
lfingers 7.12502
lthumb 10.2099 45.6369
rfemur -19.9534 -12.3077 22.0581
rtibia 59.9581
rfoot -4.50983 -8.19072
rtoes 10.3682
lfemur -14.9587 19.4234 -26.1453
ltibia 28.2273
lfoot -15.7363 19.4449
ltoes -2.28928
3540
root -32.6568 16.8335 -6.20973 -353.187 -72.8326 -8.81561
lowerback 4.3327 0.534996 2.05689
upperback 1.58246 0.784841 2.38634
thorax -0.809012 0.374529 1.25641
lowerneck -14.0833 0.662003 0.719
upperneck 29.4175 0.538647 -1.06866
head 11.9907 -0.0142235 -0.489858
rclavicle 4.13969e-014 1.31198e-014
rhumerus -49.1404 15.3327 -88.1849
rradius 57.7433
rwrist -8.30298
rhand -29.3559 6.78445
rfingers 7.12502
rthumb -2.69543 -23.1783
lclavicle 4.13969e-014 1.31198e-014
lhumerus -65.9018 -49.0281 99.7819
lradius 59.1598
lwrist 22.3978
lhand -16.018 15.8505
lfingers 7.12502
lthumb 10.1828 45.5841
rfemur -20.0784 -12.6442 22.0038
rtibia 60.8633
rfoot -3.48148 -8.62753
rtoes 11.7634
lfemur -14.2146 19.0509 -25.7677
ltibia 28.0746
lfoot -15.7751 19.2613
ltoes -1.62997
